HIERARCHY
ROOT Hips
{
	OFFSET 0.000000 1.471914 24.280096
	CHANNELS 6 Xposition Yposition Zposition Xrotation Yrotation Zrotation
	JOINT Spine
	{
		OFFSET 0.000000 0.900110 1.860670
		CHANNELS 6 Xposition Yposition Zposition Xrotation Yrotation Zrotation
		JOINT Spine1
		{
			OFFSET 0.000000 0.400320 2.270309
			CHANNELS 6 Xposition Yposition Zposition Xrotation Yrotation Zrotation
			JOINT Spine2
			{
				OFFSET 0.000000 0.200920 2.296560
				CHANNELS 6 Xposition Yposition Zposition Xrotation Yrotation Zrotation
				JOINT Spine3
				{
					OFFSET 0.000000 0.000000 2.305330
					CHANNELS 6 Xposition Yposition Zposition Xrotation Yrotation Zrotation
					JOINT Neck
					{
						OFFSET 0.000000 -0.864490 6.051487
						CHANNELS 6 Xposition Yposition Zposition Xrotation Yrotation Zrotation
						JOINT Head
						{
							OFFSET 0.000000 -0.550429 3.121674
							CHANNELS 6 Xposition Yposition Zposition Xrotation Yrotation Zrotation
							End Site
							{
								OFFSET 0.000000 0.000000 3.731750
							}
						}
					}
					JOINT RightShoulder
					{
						OFFSET -0.788280 -1.313800 4.256718
						CHANNELS 6 Xposition Yposition Zposition Xrotation Yrotation Zrotation
						JOINT RightArm
						{
							OFFSET -3.915130 0.000000 0.000000
							CHANNELS 6 Xposition Yposition Zposition Xrotation Yrotation Zrotation
							JOINT RightForeArm
							{
								OFFSET -6.914910 0.000000 0.000000
								CHANNELS 6 Xposition Yposition Zposition Xrotation Yrotation Zrotation
								JOINT RightHand
								{
									OFFSET -6.096219 0.000000 0.000000
									CHANNELS 6 Xposition Yposition Zposition Xrotation Yrotation Zrotation
									JOINT RightHandEnd
									{
										OFFSET -1.749950 0.000000 0.000000
										CHANNELS 6 Xposition Yposition Zposition Xrotation Yrotation Zrotation
										End Site
										{
											OFFSET -1.749950 0.000000 0.000000
										}
									}
									JOINT RightHandThumb1
									{
										OFFSET -0.699980 -1.166630 -0.466648
										CHANNELS 6 Xposition Yposition Zposition Xrotation Yrotation Zrotation
										End Site
										{
											OFFSET -1.690319 -0.452920 0.000000
										}
									}
								}
							}
						}
					}
					JOINT LeftShoulder
					{
						OFFSET 0.788280 -1.313800 4.256718
						CHANNELS 6 Xposition Yposition Zposition Xrotation Yrotation Zrotation
						JOINT LeftArm
						{
							OFFSET 3.915130 0.000000 0.000000
							CHANNELS 6 Xposition Yposition Zposition Xrotation Yrotation Zrotation
							JOINT LeftForeArm
							{
								OFFSET 6.914910 0.000000 0.000000
								CHANNELS 6 Xposition Yposition Zposition Xrotation Yrotation Zrotation
								JOINT LeftHand
								{
									OFFSET 6.096219 0.000000 0.000000
									CHANNELS 6 Xposition Yposition Zposition Xrotation Yrotation Zrotation
									JOINT LeftHandEnd
									{
										OFFSET 1.749950 0.000000 0.000000
										CHANNELS 6 Xposition Yposition Zposition Xrotation Yrotation Zrotation
										End Site
										{
											OFFSET 1.749950 0.000000 0.000000
										}
									}
									JOINT LeftHandThumb1
									{
										OFFSET 0.699980 -1.166630 -0.466648
										CHANNELS 6 Xposition Yposition Zposition Xrotation Yrotation Zrotation
										End Site
										{
											OFFSET 1.690319 -0.452920 0.000000
										}
									}
								}
							}
						}
					}
				}
			}
		}
	}
	JOINT RightUpLeg
	{
		OFFSET -2.338570 -0.252550 -0.551512
		CHANNELS 6 Xposition Yposition Zposition Xrotation Yrotation Zrotation
		JOINT RightLeg
		{
			OFFSET 0.000000 0.000000 -10.744959
			CHANNELS 6 Xposition Yposition Zposition Xrotation Yrotation Zrotation
			JOINT RightFoot
			{
				OFFSET 0.000000 -0.000001 -10.930849
				CHANNELS 6 Xposition Yposition Zposition Xrotation Yrotation Zrotation
				JOINT RightToeBase
				{
					OFFSET 0.000000 -4.087269 -1.487650
					CHANNELS 6 Xposition Yposition Zposition Xrotation Yrotation Zrotation
					End Site
					{
						OFFSET 0.000000 -1.891870 0.000000
					}
				}
			}
		}
	}
	JOINT LeftUpLeg
	{
		OFFSET 2.338570 -0.252550 -0.551512
		CHANNELS 6 Xposition Yposition Zposition Xrotation Yrotation Zrotation
		JOINT LeftLeg
		{
			OFFSET 0.000000 0.000000 -10.744959
			CHANNELS 6 Xposition Yposition Zposition Xrotation Yrotation Zrotation
			JOINT LeftFoot
			{
				OFFSET 0.000000 -0.000001 -10.930849
				CHANNELS 6 Xposition Yposition Zposition Xrotation Yrotation Zrotation
				JOINT LeftToeBase
				{
					OFFSET 0.000000 -4.087269 -1.487650
					CHANNELS 6 Xposition Yposition Zposition Xrotation Yrotation Zrotation
					End Site
					{
						OFFSET 0.000000 -1.891870 0.000000
					}
				}
			}
		}
	}
}
MOTION
Frames: 4
Frame Time: 0.041667
0.000015 27.011681 33.163914 -0.554103 -4.624582 69.874194 -0.000011 0.900094 1.860675 14.759993 -6.690176 1.087247 -0.000002 0.400278 2.270313 0.000006 0.000000 0.000012 0.000013 0.200882 2.296560 -0.000000 0.000000 0.000003 0.000020 0.000032 2.305309 0.000055 -0.000002 4.414923 -0.000030 -0.864434 6.051379 -11.938967 3.871493 -178.944850 0.000053 -0.550416 3.121650 -0.000010 -0.000002 -0.000006 -0.788277 -1.313730 4.256841 180.582306 60.572897 -26.210185 -3.915127 -0.000028 -0.000016 -0.000004 -0.000009 0.000002 -6.914869 -0.000006 0.000016 0.000009 0.000007 -89.435433 -6.096194 0.000024 0.000037 0.000069 0.000171 0.000074 -1.749894 -0.000024 0.000015 -0.000000 -0.000002 0.000000 -0.699962 -1.166589 -0.466647 -0.000023 -0.000011 -0.000028 0.788254 -1.313753 4.256780 -160.733011 -74.255863 35.644551 3.915246 0.000004 -0.000035 -0.000001 0.000003 0.000003 6.914934 -0.000066 -0.000005 0.000010 0.000003 55.589462 6.096269 0.000181 -0.000036 0.000130 -0.000198 -0.000113 1.749983 0.000016 0.000074 -0.000010 -0.000005 0.000001 0.699989 -1.166603 -0.466641 0.000033 -0.000008 -0.000034 -2.338596 -0.252541 -0.551455 -65.362322 -8.590240 -3.916833 0.000012 -0.000016 -10.744954 105.490755 -14.790327 -6.709809 -0.000026 0.000072 -10.930850 0.000058 -0.000001 -0.000003 -0.000026 -4.087228 -1.487624 0.000002 0.000002 0.000000 2.338584 -0.252539 -0.551497 -56.793901 0.305436 -3.562575 -0.000013 -0.000002 -10.744929 93.220956 0.772906 2.629420 0.000002 0.000008 -10.930873 0.000012 0.000001 0.000001 -0.000039 -4.087199 -1.487650 0.000001 0.000001 -0.000003 
0.000022 27.011675 33.163906 -0.521646 -4.558836 70.137662 -0.000013 0.900094 1.860673 14.619171 -6.776424 1.091937 -0.000002 0.400278 2.270319 0.000005 -0.000001 0.000010 0.000015 0.200882 2.296558 -0.000001 0.000000 0.000005 0.000019 0.000032 2.305309 0.000052 -0.000002 4.335791 -0.000028 -0.864433 6.051378 -11.675528 3.625589 -179.081754 0.000053 -0.550416 3.121654 -0.000009 -0.000002 -0.000007 -0.788274 -1.313730 4.256835 179.855710 60.763726 -25.475434 -3.915128 -0.000030 -0.000013 -0.000002 -0.000007 0.000001 -6.914869 -0.000004 0.000020 0.000009 0.000003 -89.521678 -6.096194 0.000022 0.000041 0.000070 0.000173 0.000078 -1.749895 -0.000024 0.000023 -0.000002 -0.000003 -0.000002 -0.699963 -1.166589 -0.466651 -0.000026 -0.000010 -0.000027 0.788250 -1.313753 4.256769 -161.065751 -74.025276 35.556056 3.915244 0.000002 -0.000031 -0.000000 0.000005 0.000004 6.914935 -0.000065 0.000004 0.000005 0.000004 55.724969 6.096272 0.000185 -0.000036 0.000132 -0.000203 -0.000117 1.749989 0.000011 0.000078 -0.000011 -0.000008 -0.000001 0.699988 -1.166602 -0.466637 0.000037 -0.000008 -0.000038 -2.338599 -0.252544 -0.551448 -65.649606 -8.694885 -3.980496 0.000014 -0.000015 -10.744955 105.464213 -14.847002 -6.809565 -0.000027 0.000070 -10.930854 0.000050 -0.000005 -0.000006 -0.000024 -4.087227 -1.487624 0.000001 0.000001 -0.000001 2.338579 -0.252541 -0.551493 -56.981468 0.170720 -3.619136 -0.000016 -0.000004 -10.744925 93.282837 0.793220 2.515426 0.000002 0.000007 -10.930869 0.000009 0.000001 0.000000 -0.000040 -4.087197 -1.487650 -0.000002 0.000002 -0.000001 
0.000021 27.011671 33.163910 -0.534894 -4.482345 70.044840 -0.000010 0.900090 1.860679 14.552182 -6.919181 1.093301 -0.000001 0.400277 2.270315 0.000005 0.000000 0.000012 0.000016 0.200882 2.296560 -0.000001 -0.000001 0.000003 0.000020 0.000033 2.305310 0.000050 -0.000003 4.448660 -0.000029 -0.864435 6.051383 -11.611932 3.655180 -178.877122 0.000053 -0.550416 3.121650 -0.000008 -0.000002 -0.000007 -0.788277 -1.313732 4.256841 179.771576 60.598545 -25.298693 -3.915122 -0.000028 -0.000012 -0.000004 -0.000007 0.000001 -6.914866 -0.000006 0.000016 0.000008 0.000004 -89.580069 -6.096194 0.000027 0.000041 0.000067 0.000173 0.000072 -1.749896 -0.000025 0.000023 0.000006 0.000002 -0.000000 -0.699960 -1.166593 -0.466640 -0.000019 -0.000008 -0.000028 0.788249 -1.313755 4.256776 -161.980573 -74.140078 35.022693 3.915239 0.000003 -0.000031 -0.000002 0.000006 0.000003 6.914928 -0.000067 0.000007 0.000003 0.000007 56.704343 6.096268 0.000184 -0.000044 0.000127 -0.000200 -0.000113 1.749985 0.000015 0.000079 -0.000010 -0.000008 -0.000001 0.699987 -1.166601 -0.466636 0.000033 -0.000007 -0.000038 -2.338600 -0.252550 -0.551451 -65.734560 -8.747005 -4.006125 0.000013 -0.000013 -10.744954 105.357041 -14.796461 -6.858777 -0.000028 0.000072 -10.930851 0.000056 -0.000003 -0.000004 -0.000027 -4.087228 -1.487626 -0.000001 -0.000001 -0.000001 2.338584 -0.252545 -0.551493 -56.974487 0.121408 -3.639313 -0.000020 -0.000004 -10.744927 93.214604 0.781618 2.480301 0.000002 0.000009 -10.930868 0.000012 0.000001 0.000000 -0.000042 -4.087203 -1.487650 0.000000 0.000001 -0.000001 
0.000021 27.011673 33.163906 -0.520947 -4.460096 69.946219 -0.000014 0.900093 1.860676 14.613822 -6.930496 1.109218 0.000001 0.400276 2.270309 0.000006 -0.000001 0.000011 0.000019 0.200881 2.296564 -0.000001 0.000000 -0.000001 0.000018 0.000034 2.305313 0.000054 0.000001 4.379938 -0.000024 -0.864436 6.051381 -11.659008 3.660196 -178.502923 0.000054 -0.550417 3.121658 -0.000009 -0.000002 -0.000007 -0.788272 -1.313732 4.256847 179.450557 60.400100 -25.110111 -3.915122 -0.000029 -0.000016 -0.000004 -0.000010 -0.000001 -6.914865 -0.000006 0.000012 0.000009 0.000002 -89.567583 -6.096195 0.000020 0.000033 0.000072 0.000172 0.000078 -1.749895 -0.000023 0.000019 0.000002 0.000000 0.000001 -0.699962 -1.166590 -0.466643 -0.000024 -0.000005 -0.000029 0.788256 -1.313754 4.256780 -163.837209 -74.259818 33.395701 3.915252 0.000004 -0.000031 0.000000 0.000003 0.000003 6.914927 -0.000068 0.000011 -0.000000 0.000006 56.886422 6.096269 0.000186 -0.000040 0.000128 -0.000201 -0.000114 1.749988 0.000009 0.000082 -0.000006 -0.000007 -0.000002 0.699991 -1.166604 -0.466633 0.000037 -0.000009 -0.000039 -2.338602 -0.252545 -0.551445 -65.593571 -8.883882 -4.044124 0.000014 -0.000015 -10.744952 104.966395 -14.727244 -6.976694 -0.000029 0.000071 -10.930853 0.000056 -0.000002 -0.000004 -0.000028 -4.087229 -1.487622 0.000002 -0.000000 0.000002 2.338578 -0.252543 -0.551491 -56.642615 -0.084559 -3.663022 -0.000018 -0.000006 -10.744928 92.649399 0.833375 2.322107 0.000003 0.000009 -10.930868 0.000005 0.000000 0.000000 -0.000038 -4.087199 -1.487647 0.000002 0.000002 -0.000004 
